REM MD5 d64d0da30627267f80e7402bf6370904
FILE "Hugo (France).bin" BINARY
  TRACK 01 MODE2/2352
    INDEX 01 00:00:00
  TRACK 02 AUDIO
    INDEX 00 23:50:53
    INDEX 01 23:52:53
  TRACK 03 AUDIO
    INDEX 00 26:02:07
    INDEX 01 26:04:07
  TRACK 04 AUDIO
    INDEX 00 27:42:55
    INDEX 01 27:44:55
  TRACK 05 AUDIO
    INDEX 00 28:57:03
    INDEX 01 28:59:03
REM LEADOUT 31:59:04
